<?xml version="1.0" encoding="utf-8"?>
<!-- Generator: Adobe Illustrator 25.0.1, SVG Export Plug-In . SVG Version: 6.00 Build 0)  -->
<svg version="1.1" id="Layer_1" xmlns="http://www.w3.org/2000/svg" xmlns:xlink="http://www.w3.org/1999/xlink" x="0px" y="0px"
	 viewBox="0 0 143.2 150" style="enable-background:new 0 0 143.2 150;" xml:space="preserve">
<style type="text/css">
	.st0{fill:#10519D;}
	.st1{fill:#2196F3;}
	.st2{fill:#1565C0;}
	.st3{fill:#1878C6;}
</style>
<g>
	<rect x="13.3" y="61.8" class="st0" width="116.7" height="27.6"/>
	<polygon class="st1" points="71.6,0 71.6,31.4 13.3,89.4 0,76.3 0,69.4 	"/>
	<polygon class="st2" points="56.1,105.8 71.7,121.5 71.7,150 42.1,120.3 	"/>
	<path class="st1" d="M71.6,61.8l-39.4,40.9c0,0-3.3,5.4,0,8.2s11.2,10.7,11.2,10.7l28.3-29.9L71.6,61.8z"/>
	<polygon class="st0" points="87.3,105.8 71.7,121.5 71.7,150 101.3,120.3 	"/>
	<polygon class="st1" points="71.7,150 71.7,121.5 43.4,121.5 	"/>
	<polyline class="st3" points="71.7,150 71.8,121.5 100,121.5 	"/>
	<path class="st3" d="M71.8,61.8l39.4,40.9c0,0,3.3,5.4,0,8.2c-3.3,2.8-11.2,10.7-11.2,10.7L71.7,91.7L71.8,61.8z"/>
	<polygon class="st3" points="71.6,0 71.6,31.4 129.9,89.4 143.2,76.3 143.2,69.4 	"/>
</g>
</svg>
